<svg width="20" height="20" xmlns="http://www.w3.org/2000/svg" class="bi bi-window" fill="currentColor">

 <g>
  <title>Layer 1</title>
  <path fill="#ffffff" id="svg_1" d="m4.53704,6.12963a0.5,0.5 0 1 0 0,-1a0.5,0.5 0 0 0 0,1zm2,-0.5a0.5,0.5 0 1 1 -1,0a0.5,0.5 0 0 1 1,0zm1,0.5a0.5,0.5 0 1 0 0,-1a0.5,0.5 0 0 0 0,1z"/>
  <path fill="#ffffff" id="svg_2" d="m4.03704,3.12963a2,2 0 0 0 -2,2l0,10a2,2 0 0 0 2,2l12,0a2,2 0 0 0 2,-2l0,-10a2,2 0 0 0 -2,-2l-12,0zm13,2l0,2l-14,0l0,-2a1,1 0 0 1 1,-1l12,0a1,1 0 0 1 1,1zm-13,11a1,1 0 0 1 -1,-1l0,-7l14,0l0,7a1,1 0 0 1 -1,1l-12,0z"/>
 </g>
</svg>