<svg width="16" height="16" xmlns="http://www.w3.org/2000/svg" fill="currentColor" class="bi bi-pin-fill">
 <g>
  <title>Layer 1</title>
  <path d="m4.99732,2.52494a0.38649,0.36149 0 0 1 0.27363,-0.10555l5.41081,0a0.38649,0.36149 0 0 1 0.38649,0.36149c0,0.49162 -0.26436,0.84877 -0.49934,1.06928c-0.09739,0.09037 -0.19324,0.16195 -0.27363,0.21545l0,3.20349l0.06029,0.0347c0.15691,0.09182 0.36793,0.22701 0.5805,0.40125c0.41045,0.33546 0.90515,0.87913 0.90515,1.58259a0.38649,0.36149 0 0 1 -0.38649,0.36149l-3.09189,0l0,3.25338c0,0.19954 -0.17315,1.08446 -0.38649,1.08446s-0.38649,-0.88492 -0.38649,-1.08446l0,-3.25338l-3.09189,0a0.38649,0.36149 0 0 1 -0.38649,-0.36149c0,-0.70345 0.4947,-1.24713 0.90438,-1.58259a4.57677,4.28072 0 0 1 0.64157,-0.43595l0,-3.20349a2.14113,2.00263 0 0 1 -0.27363,-0.21545c-0.23498,-0.22051 -0.49934,-0.57838 -0.49934,-1.06928a0.38649,0.36149 0 0 1 0.11285,-0.25593l0.00001,-0.00001z" id="svg_1" fill="#ffffff" stroke="null"/>
 </g>

</svg>