<svg width="24" height="24" xmlns="http://www.w3.org/2000/svg" class="bi bi-camera-video-off-fill" fill="currentColor">

 <g>
  <title>Layer 1</title>
  <path fill="#ffffff" id="svg_1" d="m14.97748,16.32999a1.99,1.99 0 0 0 0.522,-1.103l3.11,1.382a1,1 0 0 0 1.407,-0.913l0,-7.462a1,1 0 0 0 -1.406,-0.913l-3.111,1.382a2,2 0 0 0 -1.983,-1.738l-5.228,0l6.69,9.365l-0.001,0zm-10.114,-9a2.001,2.001 0 0 0 -0.847,1.635l0,6a2,2 0 0 0 2,2l5.728,0l-6.881,-9.634l0,-0.001zm9.746,11.925l-10,-14l0.814,-0.58l10,14l-0.814,0.58z" fill-rule="evenodd"/>
 </g>
</svg>