<svg width="24" height="24" xmlns="http://www.w3.org/2000/svg" fill="currentColor" class="bi bi-mic-fill">
 <g>
  <title>Layer 1</title>
  <path d="m9.1241,6.91525a3,3 0 0 1 6,0l0,5a3,3 0 0 1 -6,0l0,-5z" id="svg_1" fill="#ffffff"/>
  <path d="m7.6241,10.41525a0.5,0.5 0 0 1 0.5,0.5l0,1a4,4 0 0 0 8,0l0,-1a0.5,0.5 0 0 1 1,0l0,1a5,5 0 0 1 -4.5,4.975l0,2.025l3,0a0.5,0.5 0 0 1 0,1l-7,0a0.5,0.5 0 0 1 0,-1l3,0l0,-2.025a5,5 0 0 1 -4.5,-4.975l0,-1a0.5,0.5 0 0 1 0.5,-0.5z" id="svg_2" fill="#ffffff"/>
 </g>

</svg>