<svg width="20" height="20" xmlns="http://www.w3.org/2000/svg" class="bi bi-hand-index-fill" fill="currentColor">

 <g>
  <title>Layer 1</title>
  <path fill="#ffffff" id="svg_1" d="m9.28698,6.45969l0,-2.716a1.75,1.75 0 1 0 -3.5,0l0,5.34l-1.2,0.24a1.5,1.5 0 0 0 -1.196,1.636l0.345,3.106a2.5,2.5 0 0 0 0.405,1.11l1.433,2.15a1.5,1.5 0 0 0 1.248,0.668l6.385,0a1.5,1.5 0 0 0 1.302,-0.756l1.395,-2.441a3.5,3.5 0 0 0 0.444,-1.389l0.271,-2.715a2,2 0 0 0 -1.99,-2.199l-0.581,0a5.114,5.114 0 0 0 -0.195,-0.248c-0.191,-0.229 -0.51,-0.568 -0.88,-0.716c-0.364,-0.146 -0.846,-0.132 -1.158,-0.108l-0.132,0.012a1.26,1.26 0 0 0 -0.56,-0.642a2.632,2.632 0 0 0 -0.738,-0.288c-0.31,-0.062 -0.739,-0.058 -1.05,-0.046l-0.048,0.002z"/>
 </g>
</svg>