<svg width="24" height="24" xmlns="http://www.w3.org/2000/svg" class="bi bi-mic-mute-fill" fill="currentColor">

 <g>
  <title>Layer 1</title>
  <path fill="#ffffff" id="svg_1" d="m17.04905,11.9877c0,0.564 -0.094,1.107 -0.266,1.613l-0.814,-0.814a4.02,4.02 0 0 0 0.08,-0.799l0,-1a0.5,0.5 0 0 1 1,0l0,1zm-5,4c0.818,0 1.578,-0.245 2.212,-0.667l0.718,0.719a4.973,4.973 0 0 1 -2.43,0.923l0,2.025l3,0a0.5,0.5 0 0 1 0,1l-7,0a0.5,0.5 0 0 1 0,-1l3,0l0,-2.025a5,5 0 0 1 -4.5,-4.975l0,-1a0.5,0.5 0 0 1 1,0l0,1a4,4 0 0 0 4,4zm3,-9l0,4.879l-5.842,-5.842a3.001,3.001 0 0 1 5.842,0.963z"/>
  <path fill="#ffffff" id="svg_2" d="m13.53505,14.5947l-4.486,-4.487l0,1.88a3,3 0 0 0 4.486,2.607zm-7.84,-9.253l12,12l0.708,-0.708l-12,-12l-0.708,0.708z"/>
 </g>
</svg>