<svg width="38" height="38" xmlns="http://www.w3.org/2000/svg" class="bi bi-arrows-angle-contract" fill="currentColor">

 <g>
  <title>Layer 1</title>
  <path fill="#ffffff" id="svg_1" d="m11.37943,26.72583a0.5,0.5 0 0 0 0.707,0l4.096,-4.096l0,2.768a0.5,0.5 0 1 0 1,0l0,-3.975a0.5,0.5 0 0 0 -0.5,-0.5l-3.975,0a0.5,0.5 0 0 0 0,1l2.768,0l-4.096,4.096a0.5,0.5 0 0 0 0,0.707zm15.656,-15.656a0.5,0.5 0 0 0 -0.707,0l-4.096,4.096l0,-2.768a0.5,0.5 0 1 0 -1,0l0,3.975a0.5,0.5 0 0 0 0.5,0.5l3.975,0a0.5,0.5 0 0 0 0,-1l-2.768,0l4.096,-4.096a0.5,0.5 0 0 0 0,-0.707z" fill-rule="evenodd"/>
 </g>
</svg>