<svg width="22" height="22" xmlns="http://www.w3.org/2000/svg" class="bi bi-chat-left-text-fill" fill="currentColor">

 <g>
  <title>Layer 1</title>
  <path fill="#ffffff" id="svg_1" d="m2.94118,5.60294a2,2 0 0 1 2,-2l12,0a2,2 0 0 1 2,2l0,8a2,2 0 0 1 -2,2l-9.586,0a1,1 0 0 0 -0.707,0.293l-2.853,2.853a0.5,0.5 0 0 1 -0.854,-0.353l0,-12.793zm3.5,1a0.5,0.5 0 0 0 0,1l9,0a0.5,0.5 0 0 0 0,-1l-9,0zm0,2.5a0.5,0.5 0 0 0 0,1l9,0a0.5,0.5 0 0 0 0,-1l-9,0zm0,2.5a0.5,0.5 0 0 0 0,1l5,0a0.5,0.5 0 0 0 0,-1l-5,0z"/>
 </g>
</svg>