<svg width="20" height="20" xmlns="http://www.w3.org/2000/svg" class="bi bi-people-fill" fill="currentColor">

 <g>
  <title>Layer 1</title>
  <path fill="#ffffff" id="svg_1" d="m8.98473,16.06107s-1,0 -1,-1s1,-4 5,-4s5,3 5,4s-1,1 -1,1l-8,0zm4,-6a3,3 0 1 0 0,-6a3,3 0 0 0 0,6z"/>
  <path fill="#ffffff" id="svg_2" d="m7.20073,16.06107a2.238,2.238 0 0 1 -0.216,-1c0,-1.355 0.68,-2.75 1.936,-3.72a6.325,6.325 0 0 0 -1.936,-0.28c-4,0 -5,3 -5,4s1,1 1,1l4.216,0z" fill-rule="evenodd"/>
  <path fill="#ffffff" id="svg_3" d="m6.48473,10.06107a2.5,2.5 0 1 0 0,-5a2.5,2.5 0 0 0 0,5z"/>
 </g>
</svg>